<mxfile host="app.diagrams.net" modified="2022-09-18T13:15:22.587Z" agent="5.0 (X11; Linux x86_64) AppleWebKit/537.36 (KHTML, like Gecko) Chrome/105.0.0.0 Safari/537.36" etag="v18ebmP_hsLlyx4QBVe5" version="20.3.2" type="github">
  <diagram id="Ut86sJT1gCJFWg1d9Ez6" name="Page-1">
    <mxGraphModel dx="782" dy="525" grid="1" gridSize="10" guides="1" tooltips="1" connect="1" arrows="1" fold="1" page="1" pageScale="1" pageWidth="850" pageHeight="1100" math="0" shadow="0">
      <root>
        <mxCell id="0" />
        <mxCell id="1" parent="0" />
        <mxCell id="37LSPJNQEPZuBBPrdWQu-1" value="hello world!" style="rounded=0;whiteSpace=wrap;html=1;" vertex="1" parent="1">
          <mxGeometry x="210" y="150" width="230" height="130" as="geometry" />
        </mxCell>
      </root>
    </mxGraphModel>
  </diagram>
</mxfile>
